PathFileType	4	(X/Y/Z)	 s09c0301.trc
DataRate	CameraRate	NumFrames	NumMarkers	Units	OrigDataRate	OrigDataStartFrame	OrigNumFrames
200	200	4	50	mm	200	1	2000
Frame#	Time	racr			lacr			c7			jug			rlel			rdr			llel			ldr			s2			lic			ric			lasi			rasi			rpsi			lpsi			rgt			lgt			rth1			rth2			rth3			rth4			rlfc			rmfc			rsh1			rsh2			rsh3			rsh4			rlmal			rmmal			rcal			rtoe			rmt5			lth1			lth2			lth4			lth3			llfc			lmfc			llmal			lmmal			lcal			lmt5			lsh1			lsh2			lsh3			lsh4			ltoe			SBIKE			LBIKE			RBIKE			
		X1	Y1	Z1	X2	Y2	Z2	X3	Y3	Z3	X4	Y4	Z4	X5	Y5	Z5	X6	Y6	Z6	X7	Y7	Z7	X8	Y8	Z8	X9	Y9	Z9	X10	Y10	Z10	X11	Y11	Z11	X12	Y12	Z12	X13	Y13	Z13	X14	Y14	Z14	X15	Y15	Z15	X16	Y16	Z16	X17	Y17	Z17	X18	Y18	Z18	X19	Y19	Z19	X20	Y20	Z20	X21	Y21	Z21	X22	Y22	Z22	X23	Y23	Z23	X24	Y24	Z24	X25	Y25	Z25	X26	Y26	Z26	X27	Y27	Z27	X28	Y28	Z28	X29	Y29	Z29	X30	Y30	Z30	X31	Y31	Z31	X32	Y32	Z32	X33	Y33	Z33	X34	Y34	Z34	X35	Y35	Z35	X36	Y36	Z36	X37	Y37	Z37	X38	Y38	Z38	X39	Y39	Z39	X40	Y40	Z40	X41	Y41	Z41	X42	Y42	Z42	X43	Y43	Z43	X44	Y44	Z44	X45	Y45	Z45	X46	Y46	Z46	X47	Y47	Z47	X48	Y48	Z48	X49	Y49	Z49	X50	Y50	Z50	
1	0.0050	428.948781	1238.046127	-67.407872	436.239231	1237.271414	-406.192225	405.758077	1306.158138	-240.617819	398.071469	1174.495753	-238.501338	500.020795	1026.873773	35.980049	707.119743	881.208570	-32.060563	491.046923	1011.009162	-545.534908	697.582332	881.160125	-463.656760	-60.493897	1123.269636	-226.987341	72.171691	1129.464498	-374.620523	87.385362	1121.715091	-80.549312	117.030442	1074.439068	-354.104740	130.099024	1066.008559	-102.596876	-29.105811	1156.254560	-166.167840	-34.015550	1164.806697	-275.202414	57.766788	972.546932	-38.824984	42.792185	1006.815039	-424.059745	150.923881	867.634685	-41.733472	224.131355	820.921342	-47.294503	261.094469	739.471061	-55.539563	249.492916	841.905862	-63.619093	307.745009	650.699943	-89.850846	291.983836	639.132423	-186.499767	231.920447	579.065758	-62.133551	195.865909	498.177202	-79.491521	125.355076	446.349489	-81.296378	216.357211	487.461763	-111.912671	58.818216	372.776854	-85.430767	67.696554	383.119486	-163.557637	-29.048926	363.674296	-127.279970	218.065923	270.664750	-123.240225	133.510065	281.868916	-60.660176	162.633486	938.350087	-427.096767	246.974859	925.740998	-422.613736	262.422472	957.690420	-409.276092	317.876902	869.752900	-423.854136	398.127304	808.780965	-405.510043	420.880085	800.105119	-308.789471	350.186663	448.965559	-406.041427	367.788227	459.520079	-336.385879	282.234995	412.137975	-369.086831	449.310174	367.509820	-433.108924	384.217770	709.075144	-426.273356	396.897309	623.272389	-416.479521	363.833118	541.321355	-413.998810	423.109937	623.564664	-387.816323	541.216032	384.869389	-365.575725	-65.893670	852.749043	-239.614781	20.748303	84.544532	-441.984863	21.230986	83.773731	-43.699566	
2	0.0100	428.863194	1238.053654	-67.369182	436.173212	1237.428527	-406.062943	405.707422	1306.141353	-240.559367	398.043796	1174.459582	-238.441482	500.001119	1026.835910	35.939403	707.095865	881.211917	-32.071979	490.933704	1011.014778	-545.148879	697.623318	881.152910	-463.632532	-60.571456	1123.291117	-226.947059	72.109289	1129.457678	-374.575016	87.319722	1121.742652	-80.527144	116.958308	1074.419485	-354.098274	130.065516	1066.013238	-102.564953	-29.168892	1156.302617	-166.120703	-34.077740	1164.826856	-275.156907	57.693582	972.550605	-38.780198	42.705740	1006.833934	-424.007322	150.834687	867.619732	-41.733787	224.018763	820.881799	-47.303714	260.973761	739.430049	-55.531254	249.390538	841.883833	-63.589640	307.626357	650.640531	-89.832396	291.840974	639.094071	-186.518955	231.841061	579.043167	-62.152202	195.778814	498.098303	-79.483447	125.234220	446.252864	-81.295592	216.248148	487.378056	-111.902143	58.766344	372.647208	-85.445830	67.604243	383.035956	-163.551073	-29.412719	363.794250	-127.452224	218.074157	270.648540	-123.225121	133.500634	281.804276	-60.658088	162.557860	938.396493	-427.054074	246.887138	925.809021	-422.558025	262.366106	957.739912	-409.184705	317.811181	869.819243	-423.797325	398.072372	808.882137	-405.442242	420.769841	800.175998	-308.733696	350.146519	449.042737	-406.041616	367.714594	459.583674	-336.370591	282.199842	412.188199	-369.094747	449.283572	367.590895	-433.106277	384.165907	709.171297	-426.230214	396.859730	623.365393	-416.427690	363.784835	541.403750	-413.964113	423.060794	623.637219	-387.778766	541.174667	384.955314	-365.573522	-65.887405	852.739515	-239.615645	20.752987	84.547967	-441.978665	21.224438	83.762846	-43.691799	
3	0.0150	428.772780	1238.031470	-67.335673	436.106913	1237.625441	-405.924342	405.633782	1306.116174	-240.483111	398.061803	1174.434193	-238.343506	499.963259	1026.795848	35.903006	707.098282	881.204525	-32.086019	490.793693	1010.969761	-544.714425	697.609741	881.157760	-463.564221	-60.620224	1123.315201	-226.896474	72.075983	1129.427013	-374.536029	87.269433	1121.761341	-80.498986	116.896439	1074.405944	-354.092493	130.029324	1066.014457	-102.510329	-29.233030	1156.319929	-166.083819	-34.130422	1164.843876	-275.124957	57.615085	972.554448	-38.761885	42.628976	1006.848708	-423.958335	150.734262	867.595541	-41.712480	223.901675	820.832379	-47.288834	260.839390	739.371854	-55.540002	249.281816	841.803640	-63.564951	307.484470	650.567245	-89.842727	291.709079	638.998621	-186.482225	231.753328	578.987734	-62.136356	195.689024	498.010816	-79.508595	125.159195	446.174628	-81.285934	216.171000	487.312322	-111.908799	58.707026	372.532110	-85.431614	67.453977	382.947860	-163.556435	-29.482347	363.622094	-127.453442	218.073946	270.608433	-123.240694	133.506685	281.736167	-60.658317	162.510491	938.439165	-427.001242	246.829296	925.869515	-422.495131	262.294632	957.812687	-409.152907	317.771739	869.877867	-423.754653	398.037510	808.964906	-405.400339	420.713556	800.218471	-308.706211	350.100890	449.104468	-406.028306	367.659150	459.623771	-336.372247	282.162881	412.228302	-369.091306	449.268681	367.665994	-433.092535	384.122269	709.240656	-426.190174	396.818081	623.419931	-416.378099	363.754020	541.454159	-413.957242	423.009795	623.672702	-387.734026	541.139261	385.062462	-365.586039	-65.881929	852.744846	-239.596193	20.757698	84.560089	-441.973245	21.228583	83.773672	-43.694471	
4	0.0200	428.474691	1238.641676	-66.888945	436.038909	1237.839486	-406.110736	405.604204	1306.123957	-240.413343	398.022978	1174.393630	-238.234841	499.934820	1026.733329	35.857183	707.066732	881.197881	-32.107694	491.032519	1010.994235	-543.455827	697.562708	881.157266	-463.465049	-61.468948	1124.830788	-226.372561	72.038175	1129.405178	-374.508928	87.236428	1121.769928	-80.492716	116.882972	1074.360307	-354.065553	129.810238	1065.860333	-102.423045	-29.260104	1156.343223	-166.062847	-33.484617	1164.585799	-274.802542	57.543077	972.550906	-38.729423	42.557813	1006.872342	-423.917359	150.654322	867.566011	-41.691502	224.346362	820.318767	-47.048390	260.698788	739.316426	-55.545648	249.191066	841.767577	-63.548433	307.360773	650.516378	-89.818058	291.560271	638.917768	-186.490220	231.939007	578.674599	-62.026709	195.737249	497.822962	-79.273367	124.992614	446.244959	-81.120434	215.969094	487.018853	-112.120223	58.750880	372.298643	-85.002007	67.358753	382.833058	-163.564835	-29.527141	363.468751	-127.454229	218.066429	270.472252	-123.171333	133.482441	281.665457	-60.653858	162.408149	938.398166	-426.974260	246.768195	925.917841	-422.429640	262.047799	958.266538	-409.202814	317.727428	869.929044	-423.707322	397.905561	808.789775	-405.492557	419.882663	801.454215	-307.655066	349.834083	449.576697	-406.167403	367.942325	459.415139	-336.541099	281.927588	412.322162	-369.158187	449.245439	367.735898	-433.091284	384.096475	709.302672	-426.139496	397.139974	623.470618	-416.694073	363.734159	541.510076	-413.925771	423.236041	623.710808	-387.242651	541.105542	385.148606	-365.577708	-65.888898	852.734613	-239.600478	20.750512	84.563748	-441.983357	21.227659	83.763307	-43.693459	
